<svg aria-hidden="true" style="position:absolute;width:0;height:0;overflow:hidden" xmlns="http://www.w3.org/2000/svg"><defs><symbol id="iconantena" viewBox="0 0 30 32"><path fill="#212121" style="fill:var(--color1, #212121)" d="m29.859 22.098-8.443-8.505.937-4.615c.242.094.499.144.758.146h.006a2.159 2.159 0 1 0-2.008-1.435l-4.96.605L8.058.161a.534.534 0 0 0-.377-.16.532.532 0 0 0-.373.155L5.795 1.66a.534.534 0 0 0 0 .754l.814.826a14.943 14.943 0 0 0 2.519 17.663.513.513 0 0 0 .146.098c-.034.18-.051.364-.052.547v6.187h-6.4a2.67 2.67 0 0 0-2.667 2.667v1.067c0 .295.239.533.533.533h24.533a.533.533 0 0 0 .533-.533v-1.067a2.67 2.67 0 0 0-2.667-2.667h-6.4v-2.742a15.09 15.09 0 0 0 3.049.32 14.854 14.854 0 0 0 7.04-1.783l.818.823a.534.534 0 0 0 .377.16.532.532 0 0 0 .373-.155l1.513-1.504a.534.534 0 0 0 0-.754zM22.366 6.233a1.066 1.066 0 1 1 .752 1.822h-.003a1.067 1.067 0 0 1-.747-1.823h-.002zM21.11 9.738l-.598 2.946-1.175-1.182 1.774-1.763zm-.606-.902-1.92 1.909-1.485-1.493 3.405-.415zM23.09 28.8a1.6 1.6 0 0 1 1.6 1.6v.533H1.223V30.4a1.6 1.6 0 0 1 1.6-1.6H23.09zm-7.467-2.133v1.067H10.29v-1.067h5.333zM10.29 25.6v-4.053c0-1.294 1.196-2.347 2.667-2.347s2.667 1.053 2.667 2.347V25.6h-5.333zm6.4-1.696v-2.357c0-1.882-1.675-3.413-3.733-3.413a3.8 3.8 0 0 0-3.281 1.786A13.87 13.87 0 0 1 7.397 4.033l18.602 18.708a13.818 13.818 0 0 1-9.309 1.163zm11.289-.684L6.922 2.039l.755-.752 7.935 7.98c.004 0 .006.007.01.01l13.115 13.191-.757.752z"/><path fill="#2196f3" style="fill:var(--color2, #2196f3)" d="M12.961 20.267h-.005a1.6 1.6 0 1 0-.004 3.2h.005a1.6 1.6 0 1 0 .004-3.2zm.374 1.978a.534.534 0 1 1-.379-.911.532.532 0 0 1 .373.911h.005z"/></symbol><symbol id="iconastronaut" viewBox="0 0 32 32"><path fill="#2196f3" style="fill:var(--color2, #2196f3)" d="M31.974 4.524a.534.534 0 0 0-.43-.363l-1.91-.278-.855-1.731c-.179-.365-.777-.365-.956 0l-.855 1.731-1.91.278a.535.535 0 0 0-.296.91l1.383 1.348-.326 1.903c-.034.2.048.402.212.522a.53.53 0 0 0 .562.04l1.709-.899 1.709.899a.536.536 0 0 0 .775-.563l-.326-1.903 1.383-1.348a.536.536 0 0 0 .135-.547zm-2.463 1.327a.534.534 0 0 0-.153.472l.191 1.114-1-.526a.533.533 0 0 0-.498 0l-1.001.526.191-1.114a.534.534 0 0 0-.153-.472l-.81-.789 1.119-.163a.532.532 0 0 0 .402-.292l.5-1.013.5 1.013a.535.535 0 0 0 .402.292l1.119.163-.809.789zM26.133 20.522h-1.067v1.067h1.067v-1.067zM26.133 22.656h-1.067v1.067h1.067v-1.067zM27.2 21.589h-1.067v1.067H27.2v-1.067zM25.067 21.589H24v1.067h1.067v-1.067zM22.4 26.389h-1.067v1.067H22.4v-1.067zM22.4 28.522h-1.067v1.067H22.4v-1.067zM23.467 27.456H22.4v1.067h1.067v-1.067zM21.333 27.456h-1.067v1.067h1.067v-1.067zM16 24.256h-1.067v1.067H16v-1.067zM16 26.389h-1.067v1.067H16v-1.067zM17.067 25.322H16v1.067h1.067v-1.067zM14.933 25.322h-1.067v1.067h1.067v-1.067zM5.866 6.122H4.799v1.067h1.067V6.122zM5.866 8.255H4.799v1.067h1.067V8.255z"/><path fill="#2196f3" style="fill:var(--color2, #2196f3)" d="M6.933 7.189H5.866v1.067h1.067V7.189zM4.8 7.189H3.733v1.067H4.8V7.189z"/><path fill="#212121" style="fill:var(--color1, #212121)" d="M24.715 14.159a1.775 1.775 0 0 0-1.188-.705 1.778 1.778 0 0 0-1.34.352l-1.252.96-1.898 1.417-1.358-.541c2.421-1.086 4.114-3.508 4.114-6.32 0-3.823-3.123-6.933-6.961-6.933s-6.961 3.11-6.961 6.933a6.86 6.86 0 0 0 1.12 3.758l-2.764-.024h-.005c-.009 0-.015.004-.023.005a.515.515 0 0 0-.155.031l-.038.013c-.006.003-.013.003-.019.006l-3.233 1.596-.001.001-1.893.911a.397.397 0 0 0-.063.035 1.779 1.779 0 0 0-.598 2.295c.22.429.595.745 1.056.889a1.776 1.776 0 0 0 1.378-.128l1.388-.738 2.264-1.169 1.357-.008L2.2 22.211l-.002.001-1.339 1.333c-.316.315-.49.732-.49 1.178s.174.863.49 1.179c.325.323.752.485 1.179.485s.854-.162 1.18-.485l1.314-1.309 1.741-1.3.901.897-1.762 1.754-.002.001-1.339 1.333c-.316.315-.49.732-.49 1.178s.174.863.49 1.179c.325.323.753.485 1.18.485s.855-.162 1.18-.485l3.482-3.467.001-.002 1.01-1-.004-.004c.006-.006.015-.009.022-.015l5.166-5.658 3.471.494a.52.52 0 0 0 .262-.033c.018-.006.033-.015.05-.023.019-.01.039-.015.058-.027l3.213-2.133c.012-.008.018-.021.029-.029.013-.01.029-.014.041-.026l1.271-1.191c.662-.62.753-1.635.212-2.362zM2.13 17.77a.714.714 0 0 1-.558.052.717.717 0 0 1-.213-1.26l1.314-.632.449 1.312-.992.527zm3.498-1.828-1.548.8-.439-1.283 2.027-1.001-.04 1.484zm15.099-6.62a5.79 5.79 0 0 1-.599 2.559l-4.181-1.899a1.863 1.863 0 0 0-.788-1.388l1.464-4.86c2.378.756 4.105 2.974 4.105 5.588zm-11.789 0c0-3.235 2.644-5.867 5.894-5.867.253 0 .5.021.745.052l-1.432 4.754c-.019-.001-.037-.006-.057-.006-1.033 0-1.873.837-1.873 1.867s.84 1.867 1.873 1.867c.694 0 1.294-.383 1.618-.945l3.862 1.755a5.894 5.894 0 0 1-4.737 2.39c-3.25 0-5.894-2.632-5.894-5.867zm5.956.8c0 .441-.362.8-.806.8s-.806-.359-.806-.8c0-.441.362-.8.806-.8s.806.359.806.8zM2.465 25.146a.608.608 0 0 1-.854.001.592.592 0 0 1 0-.844l.962-.958.851.848-.959.955zm3.214 3.734a.608.608 0 0 1-.855.001.592.592 0 0 1 0-.844l.963-.959.852.848-.96.955zm3.481-3.469-.002.001-1.765 1.76-.852-.848 1.763-1.755.002-.001c.04-.04.065-.088.09-.135.007-.014.02-.026.026-.04.017-.041.019-.085.026-.129.003-.025.014-.047.014-.073 0-.036-.013-.07-.02-.106-.006-.032-.006-.065-.019-.095a.55.55 0 0 0-.091-.138c-.01-.012-.014-.027-.025-.038h-.001l-.001-.002-1.607-1.6c-.017-.017-.039-.024-.058-.038a.507.507 0 0 0-.087-.058.515.515 0 0 0-.093-.033.507.507 0 0 0-.103-.02.5.5 0 0 0-.095.005.53.53 0 0 0-.104.02.477.477 0 0 0-.094.045c-.02.011-.042.015-.061.029L4.23 23.486l-.901-.897 2.399-2.386 4.361 4.289-.928.919zm6.819-7.017c-.015-.002-.03.004-.045.003a.556.556 0 0 0-.3.075.492.492 0 0 0-.083.061c-.013.011-.028.017-.04.029l-4.698 5.146-4.328-4.257 2.833-2.818a.534.534 0 0 0-.379-.911v-.001l-2.219.013.028-1.607 3.104.027a6.947 6.947 0 0 0 4.981 2.101c.437 0 .864-.045 1.279-.123.04.032.079.065.13.085l2.41.96.152.758.178.885-3.003-.427zm4.041.178-.313-1.558 1.446-1.08.947 1.257-2.08 1.381zm3.754-2.831-.838.785-.931-1.236.831-.637a.735.735 0 0 1 .543-.143.718.718 0 0 1 .48.284.713.713 0 0 1-.085.947z"/><path fill="#212121" style="fill:var(--color1, #212121)" d="m13.602 18.544-2.143-2.133a.534.534 0 0 0-.753 0l-2.142 2.133a.537.537 0 0 0 0 .756l2.142 2.133a.536.536 0 0 0 .753 0l2.143-2.133a.535.535 0 0 0 0-.756zm-2.519 1.759-1.387-1.381 1.387-1.381 1.387 1.381-1.387 1.381zM17.164 5.071l-.258 1.036c.071.018 1.738.452 1.738 2.149h1.067c0-2.017-1.666-2.965-2.547-3.185zM19.711 9.322h-1.067v1.067h1.067V9.322z"/></symbol><symbol id="iconclock" viewBox="0 0 32 32"><path fill="#212121" style="fill:var(--color1, #212121)" d="M31.297 15.301C31.295 6.849 24.442-.002 15.989 0S.686 6.855.688 15.308a15.304 15.304 0 0 0 10.649 14.576.662.662 0 0 0 .529-.065.637.637 0 0 0 .283-.356l3.865-12.25a1.912 1.912 0 1 0-.84-3.635l-5.106-5.107a.637.637 0 0 0-.902.902l5.103 5.109a1.876 1.876 0 0 0 .536 2.309l-3.683 11.673C3.844 25.783.118 17.71 2.799 10.432S13.553-.572 20.831 2.109s11.004 10.754 8.323 18.032a14.042 14.042 0 0 1-7.462 7.973l-.398-1.874a.638.638 0 0 0-1.048-.344l-3.837 3.426a.637.637 0 0 0 .231 1.084l4.899 1.563a.638.638 0 0 0 .819-.74l-.391-1.839a15.255 15.255 0 0 0 9.329-14.089zm-15.305-.637a.638.638 0 1 1 0 1.277.638.638 0 0 1 0-1.277zm2.101 14.864 2.184-1.948.603 2.84-2.787-.892z"/><path fill="#2196f3" style="fill:var(--color2, #2196f3)" d="M15.354 3.185V4.46a.638.638 0 1 0 1.276 0V3.185a.638.638 0 0 0-1.276 0zM3.876 14.664a.638.638 0 0 0 0 1.276h1.275a.638.638 0 1 0 0-1.276H3.876zM28.108 15.939a.638.638 0 1 0 0-1.276h-1.275a.638.638 0 0 0 0 1.276h1.275z"/></symbol><symbol id="icondiagram" viewBox="0 0 32 32"><path fill="#2196f3" style="fill:var(--color2, #2196f3)" d="M14.925 14.965h1.066v4.798h-1.066v-4.797zM19.19 17.097h1.066v2.665H19.19v-2.665zM10.661 18.696h1.066v1.066h-1.066v-1.066zM7.463 18.163h1.066v1.599H7.463v-1.599z"/><path fill="#212121" style="fill:var(--color1, #212121)" d="M1.599 28.291h25.587a1.6 1.6 0 0 0 1.599-1.599V24.56a1.6 1.6 0 0 0-1.599-1.599h-.533V9.668L29.681 6.8a1.608 1.608 0 1 0-.746-.763L26.654 8.2V6.97a1.6 1.6 0 0 0-1.599-1.599H3.733A1.6 1.6 0 0 0 2.134 6.97v15.992h-.533a1.6 1.6 0 0 0-1.599 1.599v2.132a1.6 1.6 0 0 0 1.599 1.599zM30.384 4.837a.533.533 0 1 1 0 1.067.533.533 0 0 1 0-1.067zM3.198 6.969c0-.294.239-.533.533-.533h21.322c.294 0 .533.239.533.533v2.239l-1.066 1.013V8.035a.533.533 0 0 0-.533-.533H4.797a.533.533 0 0 0-.533.533v13.326c0 .294.239.533.533.533h19.19a.533.533 0 0 0 .533-.533v-9.674l1.066-1.01v12.284H3.198V6.969zm4.798 6.93a1.598 1.598 0 1 0 1.107 2.749l1.853.93a.532.532 0 0 0 .636-.123l3.939-4.431 3.872 2.901a.533.533 0 0 0 .686-.039l3.365-3.188v8.131H5.33V8.569h18.124v2.66l-3.771 3.572-3.904-2.927a.533.533 0 0 0-.718.072l-3.993 4.493-1.493-.746c.011-.064.018-.129.02-.193a1.6 1.6 0 0 0-1.599-1.599zm.533 1.599a.533.533 0 1 1-1.067 0 .533.533 0 0 1 1.067 0zm3.198 8.529h5.331v.533a.533.533 0 0 1-.533.533h-4.264a.533.533 0 0 1-.533-.533v-.533zm-10.661.533c0-.294.239-.533.533-.533h9.062v.533a1.6 1.6 0 0 0 1.599 1.599h4.264a1.6 1.6 0 0 0 1.599-1.599v-.533h9.062c.294 0 .533.239.533.533v2.132a.533.533 0 0 1-.533.533H1.598a.533.533 0 0 1-.533-.533V24.56z"/></symbol><symbol id="iconenvelope" viewBox="0 0 43 32"><path fill="#757575" style="fill:var(--color3, #757575)" d="M38.667 0H4C1.794 0 0 1.675 0 3.734v22.404c0 2.059 1.794 3.734 4 3.734h34.667c2.206 0 4-1.675 4-3.734V3.734c0-2.059-1.794-3.734-4-3.734zm0 2.489c.181 0 .353.035.511.096L21.334 17.022 3.49 2.585c.158-.061.33-.096.511-.096h34.667zm0 24.894H4c-.736 0-1.333-.558-1.333-1.245V5.216L20.46 19.611c.251.203.563.304.874.304s.622-.101.874-.304L40.001 5.216v20.922c0 .687-.598 1.245-1.333 1.245z"/></symbol><symbol id="iconfacebook" viewBox="0 0 32 32"><path fill="#afb1b8" style="fill:var(--color4, #afb1b8)" d="M21.329 5.313h2.921V.225C23.746.156 22.013 0 19.994 0c-4.212 0-7.097 2.649-7.097 7.519V12H8.249v5.688h4.648V32h5.699V17.689h4.46l.708-5.688h-5.169V8.082c.001-1.644.444-2.769 2.735-2.769z"/></symbol><symbol id="iconicon-send" viewBox="0 0 32 32"><path fill="#fff" style="fill:var(--color5, #fff)" d="M32 0 0 18l10.227 3.788L26 7 14.002 23.186l.01.004-.012-.004V32l5.735-6.691L27 28l5-28z"/></symbol><symbol id="iconinstagram" viewBox="0 0 32 32"><path fill="#afb1b8" style="fill:var(--color4, #afb1b8)" d="M31.969 9.408c-.075-1.7-.35-2.869-.744-3.882a7.806 7.806 0 0 0-1.851-2.838A7.867 7.867 0 0 0 26.542.844C25.523.45 24.36.175 22.66.1 20.947.019 20.403 0 16.059 0s-4.888.019-6.595.094c-1.7.075-2.869.35-3.882.744a7.803 7.803 0 0 0-2.838 1.85A7.867 7.867 0 0 0 .9 5.52C.506 6.539.231 7.702.156 9.402c-.081 1.713-.1 2.257-.1 6.601s.019 4.888.094 6.595c.075 1.7.35 2.869.744 3.882a7.895 7.895 0 0 0 1.85 2.838 7.867 7.867 0 0 0 2.832 1.844c1.019.394 2.182.669 3.882.744 1.706.075 2.25.094 6.595.094s4.888-.019 6.595-.094c1.7-.075 2.869-.35 3.882-.744a8.184 8.184 0 0 0 4.682-4.682c.394-1.019.669-2.182.744-3.882.075-1.707.094-2.251.094-6.595s-.006-4.888-.081-6.595zm-2.882 13.065c-.069 1.563-.331 2.407-.55 2.969a5.31 5.31 0 0 1-3.038 3.038c-.563.219-1.413.481-2.969.55-1.688.075-2.194.094-6.464.094s-4.782-.019-6.464-.094c-1.563-.069-2.407-.331-2.969-.55a4.926 4.926 0 0 1-1.838-1.194 4.974 4.974 0 0 1-1.194-1.838c-.219-.563-.481-1.413-.55-2.969-.075-1.688-.094-2.194-.094-6.464s.019-4.782.094-6.464c.069-1.563.331-2.407.55-2.969a4.868 4.868 0 0 1 1.2-1.838A4.974 4.974 0 0 1 6.639 3.55c.563-.219 1.413-.481 2.969-.55 1.688-.075 2.194-.094 6.464-.094 4.276 0 4.782.019 6.464.094 1.563.069 2.407.331 2.969.55a4.914 4.914 0 0 1 1.838 1.194 4.974 4.974 0 0 1 1.194 1.838c.219.563.481 1.413.55 2.969.075 1.688.094 2.194.094 6.464s-.019 4.77-.094 6.458z"/><path fill="#afb1b8" style="fill:var(--color4, #afb1b8)" d="M16.059 7.783c-4.538 0-8.22 3.682-8.22 8.22s3.682 8.22 8.22 8.22c4.539 0 8.22-3.682 8.22-8.22s-3.682-8.22-8.22-8.22zm0 13.552a5.333 5.333 0 0 1 0-10.664 5.333 5.333 0 0 1 0 10.664zM26.524 7.458a1.919 1.919 0 1 1-3.838 0 1.919 1.919 0 0 1 3.838 0z"/></symbol><symbol id="iconlinkedin" viewBox="0 0 32 32"><path fill="#afb1b8" style="fill:var(--color4, #afb1b8)" d="M31.992 32v-.001H32V20.263c0-5.741-1.236-10.164-7.948-10.164-3.227 0-5.392 1.771-6.276 3.449h-.093v-2.913h-6.364v21.364h6.627V21.42c0-2.785.528-5.479 3.977-5.479 3.399 0 3.449 3.179 3.449 5.657v10.401h6.62zM.528 10.636h6.635V32H.528V10.636zM3.843 0C1.722 0 0 1.721 0 3.843s1.721 3.879 3.843 3.879c2.121 0 3.843-1.757 3.843-3.879A3.846 3.846 0 0 0 3.843 0z"/></symbol><symbol id="iconlogo1" viewBox="0 0 29 32"><path fill="#afb1b8" style="fill:var(--color4, #afb1b8)" d="m3.84 0 4.677 4.428h13.046v12.351l4.677 4.428V.001H3.84z"/><path fill="#afb1b8" style="fill:var(--color4, #afb1b8)" d="M0 4.241v20.6h21.76v-8.188L8.655 4.247 0 4.242zm17.615 17.587H3.443V7.974h1.002V20.89h13.17v.938zM5.741 27.583l.528 1.086.528-1.086h.434l-.766 1.438v.837H6.07v-.837l-.766-1.438h.436zm2.447.304-.68 1.972h-.411l.856-2.275h.263l-.028.303zm.569 1.971-.681-1.972-.03-.303h.264l.859 2.275h-.412zm-.033-.843v.311H7.487v-.311h1.237zm1.848-.394.392-.264a.5.5 0 0 0 .141-.128.285.285 0 0 0 .042-.159.228.228 0 0 0-.24-.219.231.231 0 0 0-.217.135.32.32 0 0 0 .009.278.958.958 0 0 0 .098.155c.042.053.089.11.141.172l1.075 1.269h-.436l-.878-1.033a8.931 8.931 0 0 1-.202-.252 1.192 1.192 0 0 1-.136-.223.555.555 0 0 1-.048-.225c0-.119.024-.221.073-.306s.118-.151.208-.197a.667.667 0 0 1 .314-.07c.116 0 .215.023.298.07a.497.497 0 0 1 .263.433c0 .072-.013.138-.039.197s-.062.114-.108.163a1.147 1.147 0 0 1-.159.139l-.477.347a.583.583 0 0 0-.123.13.362.362 0 0 0-.065.203c0 .067.014.127.042.181a.33.33 0 0 0 .127.13.417.417 0 0 0 .205.047.58.58 0 0 0 .252-.058c.081-.04.154-.095.219-.167s.116-.158.153-.258a.91.91 0 0 0 .058-.333h.325c0 .11-.011.215-.033.314a.974.974 0 0 1-.102.275.85.85 0 0 1-.181.227.398.398 0 0 0-.025.028l-.025.027a.89.89 0 0 1-.302.184c-.11.04-.228.059-.353.059-.151 0-.282-.028-.392-.083s-.196-.131-.256-.228a.628.628 0 0 1-.089-.333c0-.093.019-.174.058-.244a.761.761 0 0 1 .158-.197c.068-.061.146-.123.234-.184zm3.843.497h.391a.888.888 0 0 1-.125.398c-.071.116-.17.207-.298.273s-.284.1-.467.1c-.141 0-.267-.025-.38-.075s-.209-.123-.289-.216a.971.971 0 0 1-.184-.339 1.46 1.46 0 0 1-.063-.444v-.189c0-.164.021-.311.064-.444a.978.978 0 0 1 .188-.339.81.81 0 0 1 .292-.217.956.956 0 0 1 .386-.075c.181 0 .334.033.459.1s.222.159.291.277a.97.97 0 0 1 .128.405h-.391a.705.705 0 0 0-.069-.252.347.347 0 0 0-.153-.159.542.542 0 0 0-.266-.056c-.09 0-.168.017-.234.05s-.122.082-.167.147-.079.144-.102.239a1.418 1.418 0 0 0-.033.322v.192c0 .115.01.219.03.313a.76.76 0 0 0 .094.239c.043.067.097.118.162.155s.144.055.236.055c.111 0 .202-.018.27-.053s.122-.087.158-.155a.734.734 0 0 0 .072-.252zm2.561-.46v.125c0 .172-.022.326-.067.463s-.109.253-.192.348c-.082.096-.181.169-.297.22s-.244.075-.384.075a.955.955 0 0 1-.383-.075c-.115-.051-.214-.124-.298-.22s-.15-.212-.197-.348a1.444 1.444 0 0 1-.069-.463v-.125c0-.172.023-.326.069-.461.046-.136.11-.253.194-.348a.833.833 0 0 1 .298-.22.94.94 0 0 1 .383-.077c.141 0 .269.026.384.077.116.05.215.123.298.22.083.096.147.212.192.348.046.135.069.289.069.461zm-.393.125v-.128c0-.127-.012-.239-.038-.336-.024-.098-.06-.18-.108-.245a.476.476 0 0 0-.406-.202.492.492 0 0 0-.231.052.45.45 0 0 0-.173.15.727.727 0 0 0-.108.245 1.354 1.354 0 0 0-.037.336v.128c0 .127.013.24.037.338s.062.181.109.248a.496.496 0 0 0 .175.152c.068.033.145.05.231.05a.462.462 0 0 0 .405-.202.732.732 0 0 0 .106-.248c.025-.098.038-.21.038-.338z"/></symbol><symbol id="iconlogo2" viewBox="0 0 25 32"><path fill="#afb1b8" style="fill:var(--color4, #afb1b8)" d="M10.447 1.806h.084c.156 0 .324.016.49.03.734.052 1.463.162 2.179.329V.403a12.97 12.97 0 0 0-2.25-.358 18.11 18.11 0 0 0-.909-.044h-.263a18.35 18.35 0 0 0-4.515.582 18.3 18.3 0 0 0-4.79 1.948v17.475a19.484 19.484 0 0 1 4.566-1.779 19.948 19.948 0 0 1 3.833-.588h.051c.216-.011.433-.017.655-.019v-1.79a21.155 21.155 0 0 0-4.982.662 23.81 23.81 0 0 0-1.731.513l-.623.211V3.591l.266-.128a17.409 17.409 0 0 1 6.471-1.651.523.523 0 0 1 .056 0c.248-.013.497-.019.741-.019h.28c.129.003.258.006.388.014z"/><path fill="#afb1b8" style="fill:var(--color4, #afb1b8)" d="M14.838 3.651a15.823 15.823 0 0 1-2.606-.211c-.277-.047-.55-.103-.814-.164v17.275a13.82 13.82 0 0 0 3.425.404 18.396 18.396 0 0 0 4.515-.581 18.362 18.362 0 0 0 4.792-1.948V1.263a19.562 19.562 0 0 1-4.564 1.781 19.388 19.388 0 0 1-4.747.609zm6.907.299.623-.21v13.63l-.266.128a17.055 17.055 0 0 1-3.184 1.144c-1.331.344-2.7.522-4.074.527-.411 0-.819-.017-1.214-.052l-.427-.038V5.062l.497.033c.361.023.735.034 1.141.034a21.098 21.098 0 0 0 5.173-.663 26.802 26.802 0 0 0 1.731-.518zM1.684 25.977a.912.912 0 0 0-.693-.28 1.034 1.034 0 0 0-.4.075.91.91 0 0 0-.512.518 1.023 1.023 0 0 0-.072.387v2.335c-.006.165.026.328.092.479.055.12.135.226.233.313a.815.815 0 0 0 .321.166c.114.032.231.048.349.049a.972.972 0 0 0 .892-.61.951.951 0 0 0 .075-.372v-.261h-.61v.208a.528.528 0 0 1-.036.208.359.359 0 0 1-.089.131.365.365 0 0 1-.128.067.425.425 0 0 1-.128.022.314.314 0 0 1-.286-.125.548.548 0 0 1-.081-.313v-2.177a.738.738 0 0 1 .075-.349.31.31 0 0 1 .299-.141.33.33 0 0 1 .272.131c.068.09.104.2.101.313v.202h.604v-.238a1.093 1.093 0 0 0-.279-.737zM5.31 25.95a1.091 1.091 0 0 0-.694-.257 1.075 1.075 0 0 0-.364.066.961.961 0 0 0-.559.518 1.099 1.099 0 0 0-.089.452v2.239a1.08 1.08 0 0 0 .089.459c.055.12.136.227.237.313a.94.94 0 0 0 .322.197c.117.043.24.065.364.066s.248-.022.364-.066c.121-.044.233-.111.33-.197a.948.948 0 0 0 .23-.313c.063-.144.093-.301.089-.459v-2.239a1.08 1.08 0 0 0-.089-.452 1.015 1.015 0 0 0-.23-.327zm-.285 3.019a.405.405 0 0 1-.121.324.445.445 0 0 1-.574 0 .397.397 0 0 1-.121-.324V26.73a.405.405 0 0 1 .121-.324.445.445 0 0 1 .574 0 .397.397 0 0 1 .121.324v2.239zM10.072 29.969V25.73h-.587l-.771 2.244h-.011l-.777-2.244h-.581v4.239h.606V27.39h.011l.593 1.823h.302l.598-1.823h.011v2.579h.606zM13.513 26.027a.84.84 0 0 0-.343-.232 1.363 1.363 0 0 0-.439-.066h-.9v4.239h.604v-1.656h.311c.188.009.376-.031.545-.116a.882.882 0 0 0 .332-.324 1.02 1.02 0 0 0 .139-.369c.024-.16.035-.321.033-.482a2.421 2.421 0 0 0-.059-.606.898.898 0 0 0-.223-.39zm-.312 1.292a.547.547 0 0 1-.056.221.346.346 0 0 1-.156.149.619.619 0 0 1-.285.053h-.276v-1.441h.311a.578.578 0 0 1 .272.053.349.349 0 0 1 .142.157.62.62 0 0 1 .053.236v.282c0 .099.006.2 0 .291H13.2zM16.374 25.73h-.495l-.934 4.239h.604l.177-.911h.824l.177.911h.604l-.957-4.239zm-.558 2.751.297-1.537h.011l.296 1.537h-.604zM20.277 28.283h-.011l-.912-2.554h-.581v4.239h.604v-2.549h.012l.923 2.549h.568v-4.239h-.604v2.554zM23.968 25.73l-.486 1.685h-.012l-.486-1.685h-.64l.83 2.447v1.792h.604v-1.792l.83-2.447h-.64zM0 31.166h.291v.817h.198v-.817h.29v-.167H.001v.167zM2.447 30.998l-.381.984h.21l.081-.224h.392l.084.224h.215l-.391-.984h-.21zm-.031.595.134-.365.134.365h-.268zM4.866 31.62h.227v.127a.382.382 0 0 1-.234.083.244.244 0 0 1-.209-.093.411.411 0 0 1-.073-.257c0-.219.095-.329.283-.329a.206.206 0 0 1 .222.157l.195-.038c-.042-.192-.181-.289-.417-.289a.495.495 0 0 0-.344.127.494.494 0 0 0-.141.379.532.532 0 0 0 .126.369.477.477 0 0 0 .374.144.59.59 0 0 0 .417-.157v-.388h-.427v.166zM7.337 30.998h-.199v.984h.69v-.167h-.49v-.817zM9.426 30.998h-.199v.984h.199v-.984zM11.469 31.656l-.403-.657h-.193v.984h.185v-.643l.395.643h.198v-.984h-.182v.657zM13.315 31.549h.49v-.167h-.49v-.216h.528v-.167h-.727v.984h.747v-.167h-.548v-.266zM17.792 31.387h-.388v-.388h-.198v.984h.198v-.43h.388v.43h.198v-.984h-.198v.388zM19.649 31.549h.492v-.167h-.492v-.216h.529v-.167h-.727v.984h.746v-.167h-.548v-.266zM22.168 31.549c.171-.027.258-.117.258-.274a.236.236 0 0 0-.096-.219.553.553 0 0 0-.288-.058h-.417v.984h.198v-.412h.039a.261.261 0 0 1 .123.022.21.21 0 0 1 .07.072l.215.313h.237l-.12-.192a.685.685 0 0 0-.218-.236zm-.199-.136h-.146v-.247h.156a.507.507 0 0 1 .201.023c.014.013.026.029.033.046a.133.133 0 0 1-.005.111.128.128 0 0 1-.037.043.547.547 0 0 1-.201.023zM24.067 31.549h.49v-.167h-.49v-.216h.529v-.167h-.729v.984h.747v-.167h-.548v-.266z"/></symbol><symbol id="iconlogo3" viewBox="0 0 31 32"><path fill="#afb1b8" style="fill:var(--color4, #afb1b8)" d="M4.722 31.103a.088.088 0 0 1 .059.025l.153.161c-.119.13-.266.234-.431.305a1.532 1.532 0 0 1-.611.109 1.496 1.496 0 0 1-.574-.102 1.25 1.25 0 0 1-.712-.733 1.618 1.618 0 0 1-.098-.571c-.003-.195.033-.39.105-.573.067-.166.168-.317.297-.445.131-.126.287-.224.459-.29.189-.07.389-.104.591-.102.188-.004.375.027.549.093.152.063.291.15.412.257l-.128.171a.122.122 0 0 1-.033.031.084.084 0 0 1-.052.013.123.123 0 0 1-.056-.018l-.069-.046-.096-.058a.978.978 0 0 0-.302-.103 1.238 1.238 0 0 0-.228-.018 1.12 1.12 0 0 0-.425.077.96.96 0 0 0-.333.215.997.997 0 0 0-.216.343c-.054.145-.08.298-.078.452-.002.156.024.312.078.46.047.126.119.242.212.341a.863.863 0 0 0 .318.212c.125.049.259.074.394.073.078.001.156-.004.234-.015a.87.87 0 0 0 .354-.122c.054-.034.104-.072.151-.113a.115.115 0 0 1 .073-.029zM9.144 30.296c.002.194-.033.386-.103.567-.062.165-.161.315-.288.44s-.282.224-.452.289a1.711 1.711 0 0 1-1.164 0 1.281 1.281 0 0 1-.741-.735 1.61 1.61 0 0 1 0-1.136c.065-.166.164-.317.291-.447.128-.121.281-.216.45-.279.374-.139.79-.139 1.164 0 .17.066.324.165.452.29.126.127.224.276.289.44.071.183.106.376.103.571zm-.402 0a1.313 1.313 0 0 0-.073-.456.898.898 0 0 0-.528-.556 1.23 1.23 0 0 0-.846 0 .901.901 0 0 0-.531.556 1.465 1.465 0 0 0 0 .912.888.888 0 0 0 .531.554c.273.097.573.097.846 0a.884.884 0 0 0 .528-.554c.051-.147.076-.301.073-.456zM12.161 30.774l.04.102a3.46 3.46 0 0 1 .044-.102.933.933 0 0 1 .05-.1l.978-1.694c.019-.029.036-.047.056-.053a.217.217 0 0 1 .08-.009h.289v2.755h-.343V29.561a.753.753 0 0 1 0-.095l-.984 1.718c-.012.026-.033.047-.058.063s-.054.023-.084.023h-.056a.154.154 0 0 1-.141-.086l-1.013-1.729V31.668h-.331v-2.75h.289a.24.24 0 0 1 .08.009c.024.011.043.03.054.053l.999 1.696c.02.031.036.064.05.098zM15.841 30.638v1.032h-.383v-2.752h.854a1.67 1.67 0 0 1 .477.06.912.912 0 0 1 .337.171.699.699 0 0 1 .191.27.905.905 0 0 1 .065.352.84.84 0 0 1-.071.352.744.744 0 0 1-.207.275.936.936 0 0 1-.339.182 1.498 1.498 0 0 1-.461.064l-.463-.007zm0-.296h.463a.992.992 0 0 0 .297-.042.617.617 0 0 0 .214-.119.477.477 0 0 0 .13-.182.579.579 0 0 0 .046-.232.522.522 0 0 0-.172-.412.766.766 0 0 0-.515-.148h-.463v1.134zM20.987 31.673h-.302a.133.133 0 0 1-.084-.026.164.164 0 0 1-.05-.064l-.26-.666h-1.307l-.27.666a.145.145 0 0 1-.048.062.132.132 0 0 1-.086.027h-.302l1.148-2.756h.398l1.164 2.756zm-1.895-1.023h1.08l-.456-1.122a1.828 1.828 0 0 1-.086-.259l-.044.144c-.013.044-.029.084-.042.117l-.452 1.12zM22.641 28.931a.16.16 0 0 1 .057.049l1.675 2.077V28.918h.343v2.756h-.191a.173.173 0 0 1-.078-.016.2.2 0 0 1-.061-.051l-1.673-2.075a.753.753 0 0 1 0 .095v2.048h-.343v-2.756h.203a.163.163 0 0 1 .069.013zM27.537 30.577v1.094h-.383v-1.094l-1.059-1.66h.343a.124.124 0 0 1 .082.024.256.256 0 0 1 .052.062l.662 1.071a1.256 1.256 0 0 1 .117.245l.05-.119c.019-.043.04-.085.065-.126l.653-1.078a.274.274 0 0 1 .05-.058.116.116 0 0 1 .082-.027h.346l-1.06 1.667zM11.971 24.293c.167.02.335.036.505.051 2.583-1.101 4.768-2.902 6.282-5.18s2.29-4.929 2.231-7.624l-2.846-2.712c.579 2.869.308 5.836-.782 8.567s-2.956 5.12-5.389 6.898z"/><path fill="#afb1b8" style="fill:var(--color4, #afb1b8)" d="m10.955 24.167.077.015c2.6-1.772 4.583-4.247 5.691-7.104s1.292-5.965.526-8.922l-4.054-3.862c1.64 3.175 2.3 6.728 1.903 10.246s-1.833 6.857-4.143 9.628zM24.704 14.725c-.689 2.961-2.362 5.632-4.77 7.616a15.094 15.094 0 0 1-2.266 1.55c1.961-.549 3.764-1.52 5.269-2.838s2.672-2.947 3.412-4.763l-1.644-1.565z"/><path fill="#afb1b8" style="fill:var(--color4, #afb1b8)" d="m24.059 14.289-2.341-2.23c-.045 2.543-.804 5.028-2.197 7.197s-3.372 3.943-5.729 5.137h.012a14 14 0 0 0 1.572-.089c2.203-.857 4.148-2.219 5.664-3.967s2.553-3.825 3.021-6.047zM11.294 2.664 8.501 0C6.004.919 3.857 2.535 2.34 4.636S.008 9.225 0 11.775c.009 2.818 1.005 5.552 2.829 7.77s4.372 3.793 7.242 4.476c2.561-2.973 4.061-6.647 4.281-10.488s-.851-7.648-3.058-10.869zM30.512 13.878c-.01-3.343-1.408-6.546-3.89-8.91s-5.843-3.696-9.352-3.706a13.655 13.655 0 0 0-4.741.841l17.099 16.291c.586-1.44.885-2.971.884-4.515z"/></symbol><symbol id="iconlogo4" viewBox="0 0 60 32"><path fill="#afb1b8" style="fill:var(--color4, #afb1b8)" d="M9.23 9.548h-.002c-1.684 0-3.048 1.33-3.048 2.971v.002c0 1.641 1.365 2.971 3.048 2.971h.002c1.684 0 3.048-1.33 3.048-2.971v-.002c0-1.641-1.365-2.971-3.048-2.971zM31.73 8.599c-.005-2.279-.936-4.463-2.589-6.074S25.247.006 22.908.001c-2.339.004-4.581.911-6.235 2.523S14.087 6.32 14.083 8.6v12.566S31.728 19.251 31.73 8.602V8.6zM0 25.289c.004 1.586.652 3.105 1.803 4.226s2.709 1.753 4.336 1.758c1.627-.005 3.185-.636 4.336-1.757s1.799-2.64 1.803-4.225v-8.744S0 17.881 0 25.289zm6.139 1.567c-.318 0-.629-.092-.893-.264s-.47-.417-.592-.703-.154-.601-.091-.905c.062-.304.215-.583.44-.802s.511-.368.823-.429c.312-.06.635-.029.929.089s.545.319.721.577a1.537 1.537 0 0 1 .15 1.471 1.585 1.585 0 0 1-.87.851c-.195.079-.405.12-.617.12v-.006zM17.415 24.007v3.174h-.654v-3.174h.654zm1.265 1.356v.51h-1.443v-.51h1.443zm.153-1.356v.512h-1.596v-.512h1.596zm2.986 1.513v.15c0 .241-.033.458-.098.65s-.158.355-.277.491a1.197 1.197 0 0 1-.427.307 1.365 1.365 0 0 1-.547.107c-.199 0-.381-.036-.547-.107a1.227 1.227 0 0 1-.427-.307 1.432 1.432 0 0 1-.281-.491 2.017 2.017 0 0 1-.098-.65v-.15c0-.243.033-.459.098-.65.065-.192.158-.355.277-.491.121-.135.263-.238.427-.31.166-.071.348-.107.547-.107.201 0 .383.036.547.107.166.071.308.174.427.31.121.135.214.299.279.491.067.19.1.407.1.65zm-.66.15v-.155c0-.169-.015-.317-.046-.445s-.076-.235-.135-.323a.58.58 0 0 0-.218-.196c-.086-.045-.184-.068-.294-.068s-.209.023-.294.068a.6.6 0 0 0-.216.196c-.058.087-.102.195-.133.323s-.046.276-.046.445v.155c0 .167.015.315.046.445.03.128.076.236.135.325.06.087.132.153.218.198s.184.068.294.068c.11 0 .209-.022.294-.068s.158-.111.216-.198c.058-.089.102-.197.133-.325.03-.129.046-.278.046-.445zm2.784.68a.43.43 0 0 0-.026-.153.282.282 0 0 0-.092-.126c-.045-.039-.108-.078-.19-.116s-.187-.077-.316-.118a4.207 4.207 0 0 1-.41-.157 1.68 1.68 0 0 1-.34-.203.91.91 0 0 1-.231-.273.753.753 0 0 1-.083-.36c0-.132.029-.252.087-.36a.833.833 0 0 1 .244-.279c.105-.078.228-.139.371-.181.144-.042.302-.063.473-.063.234 0 .438.042.613.126s.31.2.405.347a.895.895 0 0 1 .146.504h-.65a.492.492 0 0 0-.059-.244.404.404 0 0 0-.174-.168.617.617 0 0 0-.292-.061.672.672 0 0 0-.283.052.374.374 0 0 0-.17.137.338.338 0 0 0-.057.192.28.28 0 0 0 .039.146c.028.044.068.084.122.122s.12.073.198.107c.078.033.169.066.273.098.173.052.325.111.456.177.132.065.243.139.331.22s.156.174.201.277c.045.103.068.22.068.351a.764.764 0 0 1-.314.648c-.102.076-.223.133-.364.172s-.299.059-.473.059c-.157 0-.312-.02-.464-.061a1.383 1.383 0 0 1-.416-.19.919.919 0 0 1-.408-.787h.656c0 .099.015.182.046.251s.073.124.129.166a.562.562 0 0 0 .201.092c.078.019.164.028.257.028a.699.699 0 0 0 .279-.048.338.338 0 0 0 .217-.325zm2.518-2.343v3.174h-.652v-3.174h.652zm.977 0v.512h-2.59v-.512h2.59zm2.503 2.664v.51h-1.69v-.51h1.69zm-1.476-2.664v3.174h-.654v-3.174h.654zm1.256 1.292v.497h-1.469v-.497h1.469zm.218-1.292v.512h-1.688v-.512h1.688zm.383 0h1.184c.243 0 .451.036.626.109.176.073.311.18.406.323s.142.318.142.525c0 .17-.029.316-.087.438a.814.814 0 0 1-.242.303c-.103.08-.225.144-.364.192l-.207.109h-1.029l-.004-.51h.765c.115 0 .21-.02.286-.061s.132-.097.17-.17a.528.528 0 0 0 .059-.253c0-.102-.019-.19-.057-.264s-.095-.131-.172-.17a.64.64 0 0 0-.29-.059h-.53v2.662h-.654v-3.174zm1.775 3.174-.724-1.415.691-.004.733 1.389v.03h-.7zm3.434-1.132h-.809v-.51h.809c.125 0 .227-.02.305-.061.078-.042.136-.1.172-.174s.055-.158.055-.251c0-.094-.018-.182-.055-.264s-.094-.147-.172-.196-.18-.074-.305-.074h-.582v2.662h-.654v-3.174h1.236c.249 0 .461.045.639.135.179.089.315.212.41.368s.142.337.142.539c0 .205-.047.382-.142.532s-.231.265-.41.347c-.177.081-.39.122-.639.122zm3.772.622v.51h-1.69v-.51h1.69zm-1.476-2.664v3.174h-.654v-3.174h.654zm1.256 1.292v.497h-1.469v-.497h1.469zm.218-1.292v.512h-1.688v-.512h1.688zm1.846 0v3.174h-.652v-3.174h.652zm.977 0v.512h-2.59v-.512h2.59zm2.503 2.664v.51h-1.69v-.51h1.69zm-1.476-2.664v3.174h-.654v-3.174h.654zm1.256 1.292v.497h-1.469v-.497h1.469zm.218-1.292v.512h-1.688v-.512h1.688zm.383 0h1.184c.243 0 .451.036.626.109.176.073.311.18.406.323s.142.318.142.525c0 .17-.029.316-.087.438a.814.814 0 0 1-.242.303c-.103.08-.225.144-.364.192l-.207.109h-1.029l-.004-.51h.765c.115 0 .21-.02.286-.061s.132-.097.17-.17a.528.528 0 0 0 .059-.253c0-.102-.019-.19-.057-.264s-.095-.131-.172-.17a.64.64 0 0 0-.29-.059h-.53v2.662h-.654v-3.174zm1.775 3.174-.724-1.415.691-.004.733 1.389v.03h-.7zm2.738-.831a.43.43 0 0 0-.026-.153.282.282 0 0 0-.092-.126c-.045-.039-.108-.078-.19-.116s-.187-.077-.316-.118a4.207 4.207 0 0 1-.41-.157 1.68 1.68 0 0 1-.34-.203.91.91 0 0 1-.231-.273.753.753 0 0 1-.083-.36c0-.132.029-.252.087-.36a.833.833 0 0 1 .244-.279c.105-.078.228-.139.371-.181.144-.042.302-.063.473-.063.234 0 .438.042.613.126s.31.2.406.347a.895.895 0 0 1 .146.504h-.65a.492.492 0 0 0-.059-.244.404.404 0 0 0-.174-.168.617.617 0 0 0-.292-.061.672.672 0 0 0-.283.052.374.374 0 0 0-.17.137.338.338 0 0 0-.057.192.28.28 0 0 0 .039.146c.028.044.068.084.122.122s.12.073.198.107c.078.033.169.066.273.098.173.052.325.111.456.177.132.065.243.139.331.22s.156.174.201.277c.045.103.068.22.068.351a.774.774 0 0 1-.314.648c-.102.076-.223.133-.364.172s-.299.059-.473.059c-.157 0-.312-.02-.464-.061a1.383 1.383 0 0 1-.416-.19.919.919 0 0 1-.408-.787h.656c0 .099.015.182.046.251s.073.124.129.166a.562.562 0 0 0 .201.092c.078.019.164.028.257.028a.699.699 0 0 0 .279-.048.338.338 0 0 0 .217-.325z"/></symbol><symbol id="iconlogo5" viewBox="0 0 40 32"><path fill="#afb1b8" style="fill:var(--color4, #afb1b8)" d="M3.055 26.742c.156.195.24.438.236.688a1.092 1.092 0 0 1-.365.869 1.575 1.575 0 0 1-1.061.317H0v-4.361h1.827c.361-.024.718.078 1.012.29a.998.998 0 0 1 .354.816c.011.241-.065.477-.212.667a.997.997 0 0 1-.556.341c.247.045.471.177.63.373zm-2.187-.658h.781a.736.736 0 0 0 .496-.145.507.507 0 0 0 .167-.426.526.526 0 0 0-.165-.426.75.75 0 0 0-.511-.147H.868v1.144zm1.354 1.672a.54.54 0 0 0 .185-.443.56.56 0 0 0-.188-.448.803.803 0 0 0-.53-.158H.87v1.199h.83a.822.822 0 0 0 .524-.151zM6.79 28.617l-1.016-1.704h-.382v1.704h-.874v-4.361h1.655c.417-.029.83.103 1.152.371a1.394 1.394 0 0 1 .123 1.804 1.337 1.337 0 0 1-.789.443l1.082 1.743H6.79zm-1.399-2.299h.715c.497 0 .745-.22.745-.66a.641.641 0 0 0-.183-.49.771.771 0 0 0-.562-.177h-.724l.008 1.327zM11.568 27.739H9.826l-.308.878h-.917l1.6-4.312h.991l1.594 4.312h-.917l-.301-.878zm-.233-.66-.637-1.841-.637 1.841h1.273zM17.55 28.617h-.868l-1.946-2.965v2.965h-.866v-4.361h.866l1.946 2.983v-2.983h.868v4.361zM22.502 27.573a1.877 1.877 0 0 1-.785.769 2.546 2.546 0 0 1-1.22.275h-1.545v-4.361h1.545c.422-.011.841.081 1.22.268.332.168.606.433.785.761a2.541 2.541 0 0 1 0 2.288zm-.993-.104a1.601 1.601 0 0 0 0-2.082 1.506 1.506 0 0 0-1.086-.371h-.603v2.823h.603a1.5 1.5 0 0 0 1.086-.371zM12.111 0s11.201 4.246 10.963 10.39v10.392S11.881 16.534 12.115 10.39L12.111 0zM33.054 18.349a15.301 15.301 0 0 1 7.117-2.633v-3.253a14.62 14.62 0 0 0-7.117 5.886z"/><path fill="#afb1b8" style="fill:var(--color4, #afb1b8)" d="M31.783 19.329a15.237 15.237 0 0 1 8.388-7.548V2.407S24.219 8.455 24.557 17.204v14.795s.711-.271 1.829-.778c0-.473 0-.95.051-1.429a15.387 15.387 0 0 1 5.347-10.464z"/><path fill="#afb1b8" style="fill:var(--color4, #afb1b8)" d="M30.266 24.825a15.35 15.35 0 0 1 .558-3.029 14.323 14.323 0 0 0-3.378 8.937 46.367 46.367 0 0 0 3.068-1.623 15.355 15.355 0 0 1-.248-4.284zM30.9 24.878a14.705 14.705 0 0 0 .197 3.879c4.358-2.618 9.255-6.664 9.066-11.553v-.426a14.276 14.276 0 0 0-8.292 3.89 14.648 14.648 0 0 0-.972 4.21z"/></symbol><symbol id="iconlogo6" viewBox="0 0 62 32"><path fill="#afb1b8" style="fill:var(--color4, #afb1b8)" d="M31.124 14.854a2.264 2.264 0 0 1-.397-1.431v-2.075c0-.636.132-1.119.395-1.45s.715-.495 1.356-.494c.602 0 1.029.141 1.282.422.276.359.41.798.379 1.241v.488h-1.077v-.494a2.787 2.787 0 0 0-.031-.483.482.482 0 0 0-.154-.287.587.587 0 0 0-.39-.112.619.619 0 0 0-.41.118.563.563 0 0 0-.178.317 2.594 2.594 0 0 0-.042.513v2.518c-.017.243.031.486.138.707.054.075.128.134.215.171s.183.051.278.04a.545.545 0 0 0 .381-.114.521.521 0 0 0 .161-.306c.025-.167.036-.336.033-.505v-.511h1.077v.466c.03.462-.101.92-.372 1.304-.248.308-.669.462-1.289.462s-1.088-.165-1.353-.507zM35.607 14.876c-.272-.323-.408-.794-.408-1.416v-2.182c0-.616.136-1.083.408-1.399s.727-.474 1.364-.473c.633 0 1.086.158 1.358.473.272.317.41.783.41 1.399v2.182c0 .616-.138 1.089-.415 1.414s-.727.488-1.353.488-1.09-.165-1.364-.485zm1.866-.524c.097-.202.142-.424.129-.646v-2.672a1.275 1.275 0 0 0-.127-.633c-.055-.076-.131-.137-.22-.174s-.187-.05-.284-.037c-.097-.013-.195 0-.285.037s-.166.097-.221.174a1.255 1.255 0 0 0-.129.633v2.685c-.014.222.031.444.129.646.063.068.14.123.227.16a.708.708 0 0 0 .554 0 .664.664 0 0 0 .227-.16v-.013zM40.035 9.468h1.159l.872 4.027.892-4.027h1.128l.114 5.812h-.834l-.089-4.04-.861 4.04h-.669l-.892-4.054-.082 4.054h-.843l.105-5.812zM45.5 9.468h1.806c1.04 0 1.561.55 1.561 1.65 0 1.054-.548 1.58-1.643 1.579h-.615v2.583h-1.115l.007-5.812zm1.543 2.484c.11.013.222.004.328-.028s.203-.085.285-.156c.128-.196.184-.427.161-.656a1.999 1.999 0 0 0-.053-.528c-.016-.058-.044-.112-.082-.159s-.086-.087-.141-.117a1.072 1.072 0 0 0-.497-.093h-.433v1.737h.433zM50.474 9.468h1.197l1.228 5.812H51.86l-.243-1.34h-1.068l-.25 1.34h-1.055l1.228-5.812zm1.023 3.799-.417-2.44-.417 2.44h.834zM53.891 9.468h.78l1.494 3.316V9.468h.925v5.812h-.742l-1.503-3.461v3.461h-.956l.002-5.812zM59.258 13.064l-1.242-3.588h1.046l.758 2.305.711-2.305h1.023l-1.226 3.588v2.216h-1.07v-2.216zM32.845 17.822v.304h-.91v2.362h-.381v-2.362h-.914v-.304h2.205zM35.697 20.488h-.294a.124.124 0 0 1-.083-.025.139.139 0 0 1-.049-.061l-.263-.633h-1.262l-.263.633a.19.19 0 0 1-.04.072.122.122 0 0 1-.083.025h-.294l1.115-2.666h.388l1.128 2.655zm-1.846-.99h1.052l-.446-1.085a2.234 2.234 0 0 1-.083-.251l-.042.141-.04.112-.441 1.083zM37.618 20.226a1.071 1.071 0 0 0 .388-.032c.055-.013.108-.029.16-.049.049-.019.098-.042.149-.065v-.599h-.446c-.011.001-.022-.001-.032-.005a.081.081 0 0 1-.045-.039.05.05 0 0 1-.005-.027v-.205h.865v1.022a1.521 1.521 0 0 1-.47.218 1.86 1.86 0 0 1-.279.055 3.22 3.22 0 0 1-.326.017 1.56 1.56 0 0 1-.562-.099 1.34 1.34 0 0 1-.446-.279 1.3 1.3 0 0 1-.288-.422 1.459 1.459 0 0 1-.103-.553c-.002-.19.032-.379.1-.557.064-.158.162-.302.288-.422.127-.12.279-.214.446-.277.191-.068.394-.102.597-.099.104 0 .207.008.31.023a1.393 1.393 0 0 1 .488.174c.068.042.133.088.194.139l-.107.165a.098.098 0 0 1-.087.051.136.136 0 0 1-.069-.021 1.538 1.538 0 0 1-.109-.063.975.975 0 0 0-.149-.072 1.301 1.301 0 0 0-.205-.059 1.574 1.574 0 0 0-.283-.023 1.187 1.187 0 0 0-.43.074.93.93 0 0 0-.328.211.943.943 0 0 0-.207.331c-.1.289-.1.6 0 .889a.964.964 0 0 0 .549.547c.142.046.292.064.441.053zM41.172 20.184h1.217v.304h-1.59v-2.666h.381l-.009 2.362zM43.656 20.488h-.381v-2.666h.381v2.666zM45.074 17.834a.183.183 0 0 1 .058.049l1.63 2.009a.753.753 0 0 1 0-.095V17.81h.332v2.676h-.192a.17.17 0 0 1-.083-.015.196.196 0 0 1-.06-.051l-1.628-2.007v2.073h-.319V17.82h.198c.022 0 .043.004.062.013zM49.901 17.822v.293H48.55v.88h1.095v.283H48.55v.91h1.351v.293h-1.743v-2.659h1.743zM9.95 1.359 26.879 5.91v15.946L9.95 17.308V1.36zM8.864 0v18.082l19.098 5.135V5.137L8.864 0z"/><path fill="#afb1b8" style="fill:var(--color4, #afb1b8)" d="M19.1 31.611 0 26.472V8.392l19.1 5.137v18.082z"/><path fill="#afb1b8" style="fill:var(--color4, #afb1b8)" d="m9.181 1.155 16.708 4.493-7.105 6.729-16.71-4.496 7.108-6.726zM8.864 0 0 8.392l19.1 5.137 8.862-8.392L8.864 0zM20.175 30.593l7.788-7.374-7.788-2.096v9.47z"/></symbol><symbol id="iconsmartphone" viewBox="0 0 21 32"><path fill="#757575" style="fill:var(--color3, #757575)" d="M18.133 0H3.2C1.435 0 0 1.34 0 2.987v25.889c0 1.647 1.435 2.987 3.2 2.987h14.933c1.765 0 3.2-1.34 3.2-2.987V2.987c0-1.647-1.435-2.987-3.2-2.987zM3.2 1.991h14.933c.589 0 1.067.446 1.067.996v20.91H2.133V2.987c0-.549.478-.996 1.067-.996zm14.933 27.881H3.2c-.589 0-1.067-.446-1.067-.996v-2.987H19.2v2.987c0 .55-.478.996-1.067.996z"/><path fill="#757575" style="fill:var(--color3, #757575)" d="M5.021 27.177c.417.389.417 1.02 0 1.409s-1.092.389-1.508 0c-.417-.389-.417-1.02 0-1.409s1.092-.389 1.508 0z"/></symbol><symbol id="icontwitter" viewBox="0 0 32 32"><path fill="#afb1b8" style="fill:var(--color4, #afb1b8)" d="M32 6.078c-1.19.522-2.458.868-3.78 1.036a6.523 6.523 0 0 0 2.886-3.626 13.11 13.11 0 0 1-4.16 1.588A6.574 6.574 0 0 0 22.154 3c-3.632 0-6.556 2.948-6.556 6.562 0 .52.044 1.02.152 1.496-5.454-.266-10.28-2.88-13.522-6.862a6.605 6.605 0 0 0-.898 3.316 6.57 6.57 0 0 0 2.914 5.452 6.479 6.479 0 0 1-2.964-.808v.072c0 3.188 2.274 5.836 5.256 6.446a6.548 6.548 0 0 1-1.72.216 5.8 5.8 0 0 1-1.242-.112c.85 2.598 3.262 4.508 6.13 4.57a13.182 13.182 0 0 1-8.134 2.798c-.538 0-1.054-.024-1.57-.09A18.469 18.469 0 0 0 10.064 29c12.072 0 18.672-10 18.672-18.668 0-.29-.01-.57-.024-.848A13.087 13.087 0 0 0 32 6.078z"/></symbol></defs></svg>